<svg width="59" height="49" viewBox="0 0 59 49" fill="none" xmlns="http://www.w3.org/2000/svg">
<g id="Group 2369">
<g id="Group 2394">
<path id="Vector" d="M16.3877 38.1084C20.3664 37.0379 24.4605 36.4449 28.582 36.3421C32.3895 36.4877 37.3047 38.2546 46.125 38.3505C49.2993 38.4381 52.4754 38.2615 55.6199 37.8227L58.2983 33.4407C43.7617 34.7446 41.0176 33.6241 40.4664 33.6625C32.6305 32.6679 30.123 30.1345 21.2559 32.809C20.5038 33.0051 19.7638 33.2441 19.0396 33.5248L16.3877 38.1084Z" fill="#005093"/>
<path id="Vector_2" d="M15.7971 39.0978L54.9448 39.0897L52.2217 43.5573H13.2549L15.7971 39.0978Z" fill="#008C44"/>
<path id="Vector_3" d="M12.6676 44.5434L51.6449 44.5353L49.0665 49H10.123L12.6676 44.5434Z" fill="#008C44"/>
<path id="Vector_4" d="M32.1976 0L51.6209 32.8557H46.4163L26.9434 0H32.1976Z" fill="#008C44"/>
<path id="Vector_5" d="M25.7882 0L45.1607 32.8557H40.0062L20.4756 0.0260113L25.7882 0Z" fill="#008C44"/>
<path id="Vector_6" d="M38.4629 0L57.983 32.8557H52.7293L33.2559 0H38.4629Z" fill="#008C44"/>
<path id="Vector_7" d="M25.3442 10.4281L5.78437 43.3647L3.18262 38.9688L22.7389 6.02588L25.3442 10.4281Z" fill="#008C44"/>
<path id="Vector_8" d="M22.1773 5.03178L2.55217 38.0158L0 33.5736L19.5703 0.629517L22.1773 5.03178Z" fill="#008C44"/>
<path id="Vector_9" d="M28.4581 15.8137L8.96658 48.6647L6.36133 44.2723L25.8529 11.4143L28.4581 15.8137Z" fill="#008C44"/>
</g>
</g>
</svg>
