<svg width="278" height="128" viewBox="0 0 278 128" fill="none" xmlns="http://www.w3.org/2000/svg">
<path fill-rule="evenodd" clip-rule="evenodd" d="M161.697 80.6813L168.273 42.5591H156.825L160.367 22.0267H208.322L204.78 42.5591H193.05L188.422 69.3849C180.082 73.7428 171.005 77.4886 161.69 80.6813H161.697ZM197.46 64.2172C201.917 39.2216 216.438 28.1358 229.143 23.5342C228.866 25.0483 228.438 26.9706 227.78 29.1364C223.416 43.4808 212.133 55.0142 197.46 64.2106V64.2172ZM118.784 60.9718C125.347 60.9718 129.771 55.7251 130.712 50.2613C131.982 42.8949 127.664 39.7745 120.798 40.1103L117.217 60.8665L118.778 60.9784L118.784 60.9718ZM119.824 91.6157L115.328 71.1228L115.045 71.3466C114.453 75.4742 113.985 79.6017 113.274 83.7293L111.662 93.0837C104.579 94.2818 97.9828 95.1771 92.1769 95.8222C90.2021 96.0395 88.2404 96.2436 86.2985 96.4345L99.1282 22.0333H123.063C144.562 22.0333 159.116 27.833 155.285 50.0374C153.685 59.2997 147.893 67.5548 137.433 71.1228L142.844 86.3756C134.991 88.4559 127.217 90.1872 119.818 91.6091L119.824 91.6157ZM91.4199 57.5157L90.9262 61.0837C88.767 73.598 84.7055 87.9292 75.5358 97.3429C55.8273 98.778 38.6531 98.7583 27.0675 98.4423C20.2676 90.1279 19.3724 77.2516 21.571 64.5398C25.1717 43.6782 37.7776 20.5785 64.6283 20.5785C79.446 20.5785 89.0238 29.1693 92.269 41.3347L66.9323 49.4779C67.268 46.1337 65.7408 40.8871 61.3699 40.8871C49.9489 40.8871 47.5923 60.1884 46.4996 66.5476C45.8216 72.5711 42.8001 87.3038 52.3977 87.3038C58.9606 87.3038 62.252 80.1613 62.9827 75.2503H53.8722L56.9332 57.5091H91.433L91.4199 57.5157Z" fill="white"/>
<path fill-rule="evenodd" clip-rule="evenodd" d="M157.306 106.158L160.94 85.1183C170.156 82.0506 179.18 78.476 187.58 74.2958L182.09 106.151H157.306V106.158ZM253.328 46.6867C250.346 43.5598 247.739 41.7758 242.631 41.7758C229.755 41.7758 224.344 54.8299 222.745 64.0922C221.053 73.914 222.053 86.4085 234.442 86.4085C240.031 86.4085 243.901 84.4007 248.483 81.05L242.967 104.591C237.641 106.599 232.974 107.606 227.504 107.606C208.348 107.606 194.084 94.973 196.723 69.3388C213.68 59.359 226.911 46.5287 231.881 30.1962C232.921 26.7731 233.428 23.8963 233.672 22.1321C238.168 20.9669 242.203 20.5785 245.185 20.5785C249.556 20.5785 253.716 21.138 257.475 22.5863L253.321 46.6867H253.328ZM123.017 106.158L120.673 95.4668C128.25 94.0185 136.182 92.2477 144.18 90.1214L149.868 106.158H123.023H123.017ZM110.957 97.1981L109.41 106.158H84.6267L85.6141 100.444C87.9509 100.226 90.3075 99.9827 92.6905 99.7194C98.2265 99.1072 104.388 98.2777 110.951 97.1981H110.957ZM70.5134 101.615C65.1222 105.348 58.3684 107.612 49.8635 107.612C41.8787 107.612 35.8161 105.703 31.3398 102.464C41.622 102.649 55.1823 102.557 70.5134 101.615Z" fill="white"/>
</svg>
